<svg xmlns="http://www.w3.org/2000/svg" width="126.829" height="101.739" viewBox="0 0 126.829 101.739">
  <g id="Group_437" data-name="Group 437" transform="translate(-792.688 -434.167)" opacity="0.998">
    <path id="Path_1577" data-name="Path 1577" d="M1335.351,258.6a29.324,29.324,0,0,1-.927,4.264,25.231,25.231,0,0,1-1.583,4.033c-2.047,4.5-5.962,7.34-9.724,10.245-1.254.969-2.492,1.944-3.638,2.986a18.937,18.937,0,0,0-3.554,4.143,20.3,20.3,0,0,0-2.171,4.711,27.967,27.967,0,0,0-.857,4.4c-1.027,6.861,1.436,13.418,3.043,20.125,2.43,9.9-6.317,19.046-16.035,18.987a30.068,30.068,0,0,1-17.078-5.752c-1.484-1.016-2.881-2.064-4.161-3.068a22.547,22.547,0,0,1-2.6-2.794,50.2,50.2,0,0,1-3.428-4.172c-2.159-2.905-4.107-5.994-6.027-8.781-1.109-1.379-2.231-2.735-3.4-4.041a30.453,30.453,0,0,0-7.978-6.758c-1.519-.931-3.1-1.813-4.666-2.7-8.718-4.957-17.046-13.537-16.044-23.588a9.774,9.774,0,0,1,1.278-4.023,11.351,11.351,0,0,1,2.689-3.077c4.958-3.5,10.8-3.858,16.672-3.294,1.468.141,2.937.34,4.395.561,7.122,1.612,14.651,1.96,21.688.014a35.031,35.031,0,0,0,4.167-1.437c9.2-3.11,14.294-11.875,19.917-19.144a13.257,13.257,0,0,1,3.42-2.9c6.259-3.676,14.878-1.853,20.352,3.288a19.506,19.506,0,0,1,3.481,4.723,30.507,30.507,0,0,1,2.616,9.1A26.652,26.652,0,0,1,1335.351,258.6Z" transform="translate(-434.964 198.558)" fill="#de3c30"/>
    <path id="Path_1578" data-name="Path 1578" d="M1702.151,721.549a5.393,5.393,0,0,1-3.252-.719c-.965-.623-2.449-2.785-1.608-2.778,4.638-.04,8.244-1.981,11.678-4.716a.49.49,0,0,1,.838.428c-.03,3.361-2.3,5.751-5.043,7.156A9,9,0,0,1,1702.151,721.549Z" transform="translate(-807.143 -185.676)" fill="#de3c30"/>
    <path id="Path_1579" data-name="Path 1579" d="M1552.655,244.717c-.881,1.72-2.662,2.567-3.979,1.893s-1.674-2.616-.793-4.336,2.662-2.567,3.98-1.893S1553.535,243,1552.655,244.717Z" transform="translate(-686.748 194.904)" fill="#de3c30"/>
    <g id="Group_433" data-name="Group 433" transform="translate(815.33 434.978)">
      <g id="Group_5" data-name="Group 5">
        <path id="Path_69" data-name="Path 69" d="M1483.12,240.615a13.239,13.239,0,0,0-3.245-.853l5.084,1.933A19.113,19.113,0,0,0,1483.12,240.615Z" transform="translate(-1447.752 -239.762)" fill="#ef6654"/>
        <path id="Path_70" data-name="Path 70" d="M1458.788,245.635l-14.359-5.459q-.985.14-2.029.374l17.577,6.684Q1459.423,246.411,1458.788,245.635Z" transform="translate(-1417.601 -240.095)" fill="#ef6654"/>
        <path id="Path_71" data-name="Path 71" d="M1442.478,255.2l-22.278-8.472q-.765.271-1.514.57l24.474,9.306Q1442.833,255.9,1442.478,255.2Z" transform="translate(-1398.522 -245.369)" fill="#ef6654"/>
        <path id="Path_72" data-name="Path 72" d="M1428.374,266.076l-28.094-10.683q-.655.315-1.3.652l29.913,11.375Q1428.639,266.745,1428.374,266.076Z" transform="translate(-1382.671 -252.338)" fill="#ef6654"/>
        <path id="Path_73" data-name="Path 73" d="M1416.076,277.714l-33.041-12.564q-.571.35-1.128.717l34.673,13.184Q1416.325,278.384,1416.076,277.714Z" transform="translate(-1368.932 -260.188)" fill="#ef6654"/>
        <path id="Path_74" data-name="Path 74" d="M1405.6,290.075l-37.587-14.293q-.331.251-.656.51c-.111.087-.215.176-.323.263l39.171,14.895Q1405.9,290.768,1405.6,290.075Z" transform="translate(-1356.969 -268.742)" fill="#ef6654"/>
        <path id="Path_75" data-name="Path 75" d="M1397.467,303.491c-.045-.077-.089-.155-.132-.232l-42.152-16.028c-.287.277-.559.555-.82.833l43.867,16.68C1397.967,304.335,1397.711,303.919,1397.467,303.491Z" transform="translate(-1346.771 -277.953)" fill="#ef6654"/>
        <path id="Path_76" data-name="Path 76" d="M1392.234,317.609,1344.875,299.6c-.227.3-.438.6-.637.9l49.635,18.874Q1393.014,318.53,1392.234,317.609Z" transform="translate(-1338.625 -287.905)" fill="#ef6654"/>
        <path id="Path_77" data-name="Path 77" d="M1735.238,451.756l-6.929-2.635c-.058-.015-.114-.031-.173-.046a41.825,41.825,0,0,0-5.455-.949l16.582,6.305A24.573,24.573,0,0,0,1735.238,451.756Z" transform="translate(-1643.101 -407.402)" fill="#ef6654"/>
        <path id="Path_78" data-name="Path 78" d="M1432.175,349.067l-27.761-10.557a25.018,25.018,0,0,1-5.625-1.5,34.412,34.412,0,0,1-5.586-2.76L1337.333,313q-.241.488-.442.978l96.421,36.664Q1432.782,349.833,1432.175,349.067Z" transform="translate(-1332.714 -298.687)" fill="#ef6654"/>
        <path id="Path_79" data-name="Path 79" d="M1431.306,364.98l-98.512-37.46c-.09.352-.165.705-.228,1.059l99.315,37.765C1431.7,365.882,1431.514,365.426,1431.306,364.98Z" transform="translate(-1329.235 -310.367)" fill="#ef6654"/>
        <path id="Path_80" data-name="Path 80" d="M1331.359,344.363l100.608,38.257q-.13-.636-.294-1.257l-100.3-38.141C1331.352,343.6,1331.35,343.982,1331.359,344.363Z" transform="translate(-1328.259 -323)" fill="#ef6654"/>
        <path id="Path_81" data-name="Path 81" d="M1332.467,361.338l100.686,38.286c-.025-.4-.057-.793-.1-1.184l-100.786-38.324Q1332.349,360.726,1332.467,361.338Z" transform="translate(-1328.993 -336.593)" fill="#ef6654"/>
        <path id="Path_82" data-name="Path 82" d="M1336.447,379.426l99.715,37.918q.052-.558.074-1.118l-100.172-38.091Q1336.242,378.78,1336.447,379.426Z" transform="translate(-1332.049 -351.09)" fill="#ef6654"/>
        <path id="Path_83" data-name="Path 83" d="M1342.775,398.407l97.868,37.215q.128-.527.23-1.058l-98.607-37.5Q1342.512,397.738,1342.775,398.407Z" transform="translate(-1337.038 -366.322)" fill="#ef6654"/>
        <path id="Path_84" data-name="Path 84" d="M1350.514,417.93,1445.9,454.2q.2-.5.378-1l-96.32-36.626Q1350.235,417.251,1350.514,417.93Z" transform="translate(-1343.226 -382.014)" fill="#ef6654"/>
        <path id="Path_85" data-name="Path 85" d="M1358.439,437.52l92.514,35.179q.277-.467.528-.944l-93.557-35.576Q1358.188,436.85,1358.439,437.52Z" transform="translate(-1349.636 -397.789)" fill="#ef6654"/>
        <path id="Path_86" data-name="Path 86" d="M1365.268,456.692l89.482,34.026q.358-.435.688-.883L1364.877,455.4Q1365.085,456.046,1365.268,456.692Z" transform="translate(-1355.23 -413.251)" fill="#ef6654"/>
        <path id="Path_87" data-name="Path 87" d="M1369.921,475.039l86.434,32.867q.449-.4.868-.815l-87.508-33.276Q1369.836,474.428,1369.921,475.039Z" transform="translate(-1359.123 -428.069)" fill="#ef6654"/>
        <path id="Path_88" data-name="Path 88" d="M1371.119,492.174l83.544,31.768c.357-.237.708-.488,1.054-.745l-84.532-32.144C1371.177,491.427,1371.156,491.8,1371.119,492.174Z" transform="translate(-1360.252 -441.938)" fill="#ef6654"/>
        <path id="Path_89" data-name="Path 89" d="M1368.056,507.912l80.657,30.67q.669-.3,1.322-.643l-81.705-31.069Q1368.21,507.391,1368.056,507.912Z" transform="translate(-1357.788 -454.663)" fill="#ef6654"/>
        <path id="Path_90" data-name="Path 90" d="M1362.856,521.673c-.145.318-.3.636-.452.954l77.374,29.422q.846-.231,1.675-.508l-78.59-29.885A.151.151,0,0,1,1362.856,521.673Z" transform="translate(-1353.241 -466.559)" fill="#ef6654"/>
        <path id="Path_91" data-name="Path 91" d="M1355.255,536.561l73.076,27.787q1.1-.123,2.2-.309l-74.768-28.432C1355.6,535.926,1355.427,536.243,1355.255,536.561Z" transform="translate(-1347.489 -477.784)" fill="#ef6654"/>
        <path id="Path_92" data-name="Path 92" d="M1347.668,550.29l66.58,25.318c1.052.054,2.121.079,3.2.071L1348.2,549.347Q1347.934,549.818,1347.668,550.29Z" transform="translate(-1341.385 -488.838)" fill="#ef6654"/>
        <path id="Path_93" data-name="Path 93" d="M1340,563.946l58.907,22.4q1.409-.016,2.846-.063L1340.524,563Q1340.259,563.473,1340,563.946Z" transform="translate(-1335.213 -499.823)" fill="#ef6654"/>
        <path id="Path_94" data-name="Path 94" d="M1332.592,577.666l51.223,19.477q1.566-.028,3.113.039l-53.834-20.471Q1332.838,577.189,1332.592,577.666Z" transform="translate(-1329.256 -510.853)" fill="#ef6654"/>
        <path id="Path_95" data-name="Path 95" d="M1325.855,591.593l45.4,17.264q1.18-.142,2.351-.252L1326.3,590.616Q1326.069,591.1,1325.855,591.593Z" transform="translate(-1323.835 -522.041)" fill="#ef6654"/>
        <path id="Path_96" data-name="Path 96" d="M1320.254,605.9l40.388,15.358q1.038-.188,2.079-.355l-42.111-16.013C1320.484,605.225,1320.364,605.562,1320.254,605.9Z" transform="translate(-1319.329 -533.523)" fill="#ef6654"/>
        <path id="Path_97" data-name="Path 97" d="M1316.5,620.818l35.615,13.543q.947-.219,1.894-.425l-37.3-14.184C1316.629,620.109,1316.558,620.464,1316.5,620.818Z" transform="translate(-1316.309 -545.482)" fill="#ef6654"/>
        <path id="Path_98" data-name="Path 98" d="M1315.549,636.711l30.62,11.643q.9-.234,1.8-.462l-32.441-12.336C1315.517,635.943,1315.521,636.328,1315.549,636.711Z" transform="translate(-1315.521 -558.197)" fill="#ef6654"/>
        <path id="Path_99" data-name="Path 99" d="M1318.081,654.248l24.631,9.366q.952-.186,1.9-.424l-26.984-10.26A11.33,11.33,0,0,0,1318.081,654.248Z" transform="translate(-1317.214 -572.174)" fill="#ef6654"/>
        <path id="Path_100" data-name="Path 100" d="M1329.047,674.991l14.927,5.676c.927.016,1.867-.01,2.811-.077l-19.027-7.236A13.242,13.242,0,0,0,1329.047,674.991Z" transform="translate(-1325.366 -588.608)" fill="#ef6654"/>
      </g>
    </g>
    <g id="Group_434" data-name="Group 434" transform="translate(906.308 449.658)">
      <rect id="Rectangle_14" data-name="Rectangle 14" width="0.396" height="3.299" transform="translate(4.157 0)"/>
      <rect id="Rectangle_15" data-name="Rectangle 15" width="0.396" height="3.299" transform="translate(1.081 1.547) rotate(-45.002)"/>
      <rect id="Rectangle_16" data-name="Rectangle 16" width="3.299" height="0.396" transform="translate(0 4.421)"/>
      <rect id="Rectangle_17" data-name="Rectangle 17" width="3.299" height="0.396" transform="translate(1.267 7.612) rotate(-44.982)"/>
      <rect id="Rectangle_18" data-name="Rectangle 18" width="0.396" height="3.299" transform="translate(4.421 5.674)"/>
      <rect id="Rectangle_19" data-name="Rectangle 19" width="0.396" height="3.299" transform="translate(5.28 5.373) rotate(-44.982)"/>
      <rect id="Rectangle_20" data-name="Rectangle 20" width="3.299" height="0.396" transform="translate(5.674 4.157)"/>
      <rect id="Rectangle_21" data-name="Rectangle 21" width="3.299" height="0.396" transform="translate(5.093 3.413) rotate(-44.982)"/>
    </g>
    <g id="Group_436" data-name="Group 436" transform="translate(800.273 515.38)">
      <g id="Group_15" data-name="Group 15" transform="translate(2.829)">
        <rect id="Rectangle_32" data-name="Rectangle 32" width="0.403" height="6.061"/>
      </g>
      <g id="Group_16" data-name="Group 16" transform="translate(0 2.829)">
        <rect id="Rectangle_33" data-name="Rectangle 33" width="6.061" height="0.403"/>
      </g>
    </g>
    <path id="Path_1580" data-name="Path 1580" d="M1322.208,363.406a49.157,49.157,0,0,1-7.078,19.734,24.03,24.03,0,0,1-4.6,5.318c-4.915,4.233-11.054,7.59-17.371,8.158a20.2,20.2,0,0,1-4.756-.124,26.925,26.925,0,0,1-8.412-2.665,35.517,35.517,0,0,1-3.833-2.236c-5.839-4.162-11.092-9.266-17.775-12.371a30.952,30.952,0,0,0-4.2-1.6c-9.464-3.065-19.478-.985-28.833,1.523a16.2,16.2,0,0,1-7.3.03,29.434,29.434,0,0,1-6.847-2.488,20.91,20.91,0,0,1-3.774-2.444,20.161,20.161,0,0,1-4.405-4.975,18.962,18.962,0,0,1-2.479-6.176c-2.929-9.225,1.8-18.75,9.947-23.786,12.655-7.663,26.851-4.051,40.387-4.6a15.209,15.209,0,0,0,5.431-1.234,34.781,34.781,0,0,0,4.543-2.064,39.9,39.9,0,0,0,4.216-2.651c1.415-.975,2.839-1.988,4.3-3.028a32.927,32.927,0,0,1,15.346-5.987,30.722,30.722,0,0,1,5.384-.158c17.9,1.546,33.633,18.515,32.983,36.536A50.809,50.809,0,0,1,1322.208,363.406Z" transform="translate(-406.991 131.039)" fill="#ef7067"/>
  </g>
  <text id="_" data-name="?" transform="matrix(0.839, -0.545, 0.545, 0.839, 14.201, 17.989)" font-size="10" font-family="SFProText-Regular, SF Pro Text" letter-spacing="0.036em"><tspan x="0" y="0">?</tspan></text>
</svg>
