<?xml version="1.0" encoding="utf-8"?>
<!-- Generator: Adobe Illustrator 27.5.0, SVG Export Plug-In . SVG Version: 6.00 Build 0)  -->
<svg version="1.1" id="Layer_1" xmlns="http://www.w3.org/2000/svg" xmlns:xlink="http://www.w3.org/1999/xlink" x="0px" y="0px"
	 viewBox="0 0 512 512" style="enable-background:new 0 0 512 512;" xml:space="preserve">
<g fill="#0284c7" >
	<path d="M279.94,240.2h-52.88v-47.52h52.88V240.2z M279.94,76.77h-52.88v48.56h52.88V76.77z M342.49,192.6h-52.88v47.52h52.88
		L342.49,192.6L342.49,192.6z M217.46,134.93h-52.88V183h52.88V134.93z M279.94,134.93h-52.88V183h52.88V134.93z M501.36,214.92
		c-11.52-7.76-38.08-10.56-58.48-6.72c-2.64-19.2-13.36-35.92-32.88-50.96l-11.2-7.44l-7.44,11.2
		c-14.72,22.24-18.72,58.88-2.96,83.03c-6.96,3.76-20.64,8.88-38.72,8.56H1.95c-6.96,40.64,4.64,93.43,35.2,129.67
		c29.68,35.12,74.15,52.96,132.31,52.96c125.91,0,219.11-58,262.7-163.35c17.12,0.32,54.08,0.08,73.04-36.16
		c1.2-2,5.28-10.56,6.8-13.68L501.36,214.92z M92.51,192.6h-52.8v47.52h52.88V192.6H92.51z M154.98,192.6h-52.88v47.52h52.88V192.6z
		 M217.46,192.6h-52.88v47.52h52.88V192.6z M154.98,134.93h-52.88V183h52.88V134.93z"/>
</g>
</svg>
