<?xml version="1.0" encoding="utf-8"?>
<!-- Generator: Adobe Illustrator 24.1.1, SVG Export Plug-In . SVG Version: 6.00 Build 0)  -->
<svg version="1.1" id="Layer_1" xmlns="http://www.w3.org/2000/svg" xmlns:xlink="http://www.w3.org/1999/xlink" x="0px" y="0px"
	 viewBox="0 0 512 512" style="enable-background:new 0 0 512 512;" xml:space="preserve">
<g fill='#1d4ed8'>
	<path d="M217.6,306.2l0.2,0.1l-21.3,51.5c-20.4-13.1-36-32.6-44.2-55.4l55-9.3l0.1,0.1C214.6,291.8,220.6,299.2,217.6,306.2
		L217.6,306.2z M199.9,260.7c7.2-2,9.3-11.3,3.7-16.2l0.1-0.3l-41.8-37.4c-12.8,20.8-18.3,45.3-15.6,69.4l53.6-15.4L199.9,260.7z
		 M224.3,218.5c6.1,4.4,14.6,0.3,14.9-7.3l0.3-0.1l3.2-55.9c-24.3,2.8-46.8,13.7-64.3,30.9L224.3,218.5L224.3,218.5z M240.6,277.2
		l15.4,7.4l15.4-7.4l3.8-16.6l-10.7-13.3h-17.2l-10.7,13.3L240.6,277.2z M272.6,211.1c0.3,7.5,8.8,11.6,14.9,7.1l0.1,0.1l45.5-32.2
		c-17.3-17-39.7-27.8-63.8-30.8l3.1,55.8L272.6,211.1z M504.6,338.5L381.4,491.7c-6.5,8-16.3,12.7-26.6,12.7l-197.6,0.1
		c-10.3,0-20.2-4.7-26.7-12.8L7.4,338.5c-6.4-8-8.8-18.5-6.6-28.6l44-191c2.2-10.1,9-18.4,18.4-22.9l177.9-85.1
		c9.3-4.4,20.2-4.4,29.6,0l178,85c9.3,4.5,16.1,12.9,18.4,22.9l44,191.1C513.4,319.9,511,330.4,504.6,338.5L504.6,338.5z
		 M434.4,294.6l-3.1-0.8c-3.8-0.7-6.8-0.5-10.3-0.8c-7.4-0.8-13.6-1.4-19.1-3.2c-2.3-0.8-3.8-3.5-4.6-4.7l-4.3-1.3
		c2.3-16.6,1.6-33.4-2.3-49.8c-3.7-16.4-10.5-32.1-19.9-46.1l3.7-3.4c0.2-1.9,0-3.9,2-6c4.2-4,9.5-7.3,15.8-11.2
		c3.1-1.7,5.8-2.9,8.9-5.2l2.4-1.9c5.1-4,6.3-11.1,2.6-15.7c-3.7-4.6-10.8-5-15.8-1l-2.4,1.9c-2.8,2.5-4.6,4.9-7,7.5
		c-5.3,5.3-9.7,9.8-14.4,12.9c-2,1.3-5.1,0.8-6.4,0.8l-4.1,2.9c-23.3-24.5-54.7-39.7-88.4-42.8l-0.3-4.8c-1.4-1.3-3.1-2.5-3.5-5.3
		c-0.5-5.8,0.3-11.9,1.3-19.3c0.4-3.5,1.2-6.3,1.4-10.2v-3c0-6.5-4.9-11.8-10.7-11.8c-5.9,0-10.7,5.3-10.7,11.8v0.3v2.7
		c0.2,3.8,1,6.7,1.4,10.2c0.9,7.4,1.7,13.6,1.3,19.3c-0.7,2.1-1.8,4-3.5,5.5l-0.3,4.5c-33.9,2.8-65.6,17.9-88.8,42.8l-3.8-2.8
		c-1.9,0.3-3.8,0.8-6.3-0.6c-4.8-3.3-9.2-7.7-14.4-13c-2.4-2.6-4.2-5-7-7.4l-2.4-1.9c-2.2-1.7-4.7-2.7-7.4-2.8
		c-3.3-0.2-6.4,1.3-8.5,3.8c-3.7,4.7-2.5,11.7,2.6,15.7l0.2,0.1l2.3,1.7c3,2.3,5.7,3.4,8.8,5.2c6.3,4,11.6,7.3,15.8,11.2
		c1.6,1.8,1.9,4.8,2.1,6.2l3.4,3c-18.8,28.4-26.6,62.5-21.8,96.2l-4.4,1.3c-1.2,1.6-2.8,3.9-4.6,4.7c-5.5,1.7-11.7,2.3-19.1,3.1
		c-3.5,0.3-6.5,0.2-10.3,0.8l-2.8,0.7l-0.1,0.1h-0.2c-6.3,1.5-10.4,7.3-9,13c1.2,5.6,7.4,9.2,13.7,7.7h0.2l0.2-0.1l2.8-0.6
		c3.7-1,6.3-2.4,9.6-3.7c7-2.5,12.9-4.7,18.6-5.5c2.4-0.2,4.9,1.5,6.1,2.2l4.7-0.8c10.4,32.2,32.3,59.5,61.4,76.7l-1.9,4.7
		c0.8,1.8,1.5,4.2,0.9,6c-2,5.4-5.6,11.1-9.6,17.3c-2,2.9-4,5.2-5.8,8.5l-1.3,2.9c-2.8,5.8-0.8,12.6,4.5,15.2
		c5.3,2.5,11.9-0.2,14.7-6.1l1.3-2.8c1.5-3.4,2-6.4,3.1-9.7c2.8-7.1,4.3-14.5,8.3-19.2c1.1-1.2,2.8-1.8,4.6-2.2l2.4-4.4
		c31.6,12.2,66.6,12.2,98.3,0.2l2.3,4.1c1.8,0.6,3.8,0.9,5.4,3.3c2.9,4.9,4.9,10.8,7.3,17.9c1.1,3.3,1.6,6.3,3.1,9.7l1.3,2.8
		c2.8,5.9,9.4,8.6,14.7,6c5.3-2.5,7.3-9.3,4.6-15.2l-1.4-2.8c-1.8-3.3-3.8-5.6-5.7-8.5c-4.1-6.3-7.4-11.5-9.5-16.9
		c-0.8-2.8,0.1-4.4,0.8-6.3l-1.8-4.3c29.3-17.3,51.1-44.8,61.4-77.3l4.6,0.8c1.6-1.1,3-2.4,5.9-2.3c5.6,0.8,11.6,3,18.6,5.5
		c3.3,1.3,5.9,2.7,9.6,3.7l2.8,0.6l0.2,0.1h0.2c6.3,1.4,12.5-2.1,13.7-7.8C444.7,301.9,440.7,296.1,434.4,294.6L434.4,294.6z
		 M349.8,206.9l-41.6,37.3v0.2c-5.6,4.9-3.5,14.2,3.7,16.2l0.1,0.2l53.9,15.5c1.2-11.9,0.4-24-2.3-35.7
		C360.9,228.7,356.2,217.3,349.8,206.9L349.8,206.9z M264.2,320.6c-1.7-3.1-5-5.1-8.6-5c-3.3,0.2-6.4,2-8,5l-27.1,48.9
		c23,7.9,48,7.9,71,0l-27.1-48.9H264.2z M304.5,293c-1.9-0.4-3.9-0.1-5.7,0.8c-4.5,2.2-6.6,7.6-4.6,12.2v0.1l21.5,52
		c20.6-13.1,36.2-32.8,44.4-55.8l-55.5-9.4L304.5,293z"/>
</g>
</svg>
