<svg xmlns="http://www.w3.org/2000/svg" width="998" height="936" viewBox="0 0 998 936" version="1.1"><path d="M 354.500 62 C 319.867 62.309, 297.867 62.882, 296.840 63.500 C 295.453 64.336, 60.954 359.482, 55.726 366.973 C 54.777 368.332, 54 370.850, 54 372.567 C 54 374.284, 73.550 460.211, 97.444 563.515 C 134.857 725.270, 141.208 751.662, 143.194 753.649 C 144.463 754.918, 224.201 793.574, 320.389 839.551 C 460.719 906.629, 495.793 923.024, 497.889 922.525 C 500.071 922.006, 559.553 893.336, 706.500 821.977 C 719.150 815.834, 742.550 804.491, 758.500 796.770 C 812.928 770.422, 844.498 755.024, 847 753.607 C 848.375 752.828, 850.027 751.135, 850.671 749.845 C 852.420 746.344, 936.013 374.095, 936.006 369.839 C 936.001 366.625, 934.203 363.936, 921.299 347.839 C 913.213 337.752, 859.174 270.325, 801.211 198 C 743.249 125.675, 694.454 65.215, 692.779 63.645 L 689.733 60.790 550.117 61.145 C 473.328 61.340, 385.300 61.725, 354.500 62 M 485.778 79.968 C 308.700 80.495, 307.038 80.518, 305.169 82.500 C 304.132 83.600, 251.594 149.750, 188.419 229.500 C 116.018 320.897, 73.603 375.239, 73.683 376.500 C 73.753 377.600, 78.343 398.075, 83.884 422 C 123.794 594.351, 148.773 702.405, 152.658 719.500 C 155.157 730.500, 157.719 740.044, 158.351 740.709 C 159.252 741.658, 236.526 778.917, 314.500 815.998 C 319.450 818.352, 330.700 823.735, 339.500 827.960 C 348.300 832.184, 387.251 850.821, 426.057 869.375 L 496.615 903.109 522.557 890.453 C 536.826 883.493, 551.200 876.522, 554.500 874.962 C 557.800 873.402, 622.150 842.199, 697.500 805.621 L 834.500 739.115 838.222 722.808 C 840.270 713.838, 844.423 695.475, 847.452 682 C 850.480 668.525, 856.303 642.650, 860.391 624.500 C 864.478 606.350, 875.300 558.200, 884.440 517.500 C 893.579 476.800, 901.698 440.800, 902.482 437.500 C 909.304 408.793, 916.897 372.642, 916.306 371.682 C 915.905 371.032, 890.117 338.775, 858.998 300 C 827.879 261.225, 775.945 196.425, 743.589 156 C 711.234 115.575, 683.865 81.713, 682.770 80.750 C 681.170 79.344, 679.180 79.043, 672.639 79.218 C 668.163 79.337, 584.075 79.675, 485.778 79.968 M 456 156.075 C 412.446 157.864, 384.791 164.933, 359.188 180.821 C 330.670 198.517, 307.979 223.979, 291.745 256.500 C 275.516 289.008, 268.996 318.832, 257.025 415.300 C 251.922 456.423, 248.931 475.153, 244.522 493.606 L 242.108 503.713 232.672 513.149 C 223.383 522.438, 213.745 535.674, 207.976 547.066 C 200.604 561.622, 194.378 586.047, 190.022 617.500 C 188.880 625.750, 187.712 633.962, 187.427 635.750 L 186.909 639 175.455 639 L 164 639 164 648.497 L 164 657.994 327.281 658.247 L 490.562 658.500 487.332 684 C 485.555 698.025, 484.079 709.612, 484.051 709.750 C 484.023 709.888, 450.025 710, 408.500 710 L 333 710 333 719.500 L 333 729 580 729 L 827 729 827 719.500 L 827 710 811.707 710 L 796.415 710 794.151 691.250 C 787.991 640.238, 782.479 608.903, 776.693 592.002 L 773.268 582 807.134 582 L 841 582 841 572.500 L 841 563 802.083 563 L 763.166 563 757.439 554.750 C 754.290 550.212, 747.717 542.563, 742.834 537.750 L 733.956 529 766.478 529 L 799 529 799 520 L 799 511 757.035 511 C 718.089 511, 715.004 510.874, 714.143 509.250 C 713.633 508.288, 712.008 502.550, 710.531 496.500 C 709.055 490.450, 707.626 484.712, 707.356 483.750 C 706.897 482.114, 708.634 482, 733.933 482 L 761 482 761 472.515 L 761 463.031 732.277 462.765 L 703.555 462.500 702.798 458.065 C 702.382 455.626, 699.771 435.376, 696.996 413.065 C 684.010 308.653, 676.281 277.579, 654.205 241.029 C 633.568 206.863, 601.799 179.702, 568.460 167.724 C 552.658 162.046, 524.849 157.434, 500.649 156.478 C 493.417 156.192, 484.350 155.823, 480.500 155.657 C 476.650 155.491, 465.625 155.679, 456 156.075 M 445.500 171.043 C 420.604 172.739, 400.435 177.063, 384.197 184.184 C 349.172 199.545, 322.651 226.096, 303.900 264.573 C 290.047 293, 282.510 327.769, 272.482 409.500 C 267.487 450.216, 264.828 468.685, 261.920 482.860 C 260.864 488.008, 260 492.332, 260 492.468 C 260 492.605, 263.712 491.237, 268.250 489.429 C 283.228 483.459, 300.299 481.039, 327.500 481.028 C 357.784 481.016, 380.276 484.571, 396.522 491.937 C 421.164 503.111, 444.738 529.621, 455.488 558.250 L 457.272 563 487.489 563 L 517.707 563 522.203 556.250 C 532.674 540.533, 549.569 525.747, 567.121 516.939 C 586.405 507.262, 601.798 504.573, 638 504.558 C 664.936 504.547, 679.246 505.828, 692.953 509.475 C 695.953 510.273, 698.555 510.778, 698.737 510.596 C 698.918 510.415, 698.159 506.944, 697.049 502.883 C 691.902 484.053, 688.396 462.542, 682.048 410.845 C 672.531 333.347, 665.748 299.782, 654.135 272.717 C 633.340 224.252, 595.483 189.102, 552.173 178.044 C 526.146 171.399, 482.414 168.529, 445.500 171.043 M 357.402 242.429 C 346.197 244.971, 336.219 251.623, 327.949 262.064 L 325.086 265.679 330.783 269.861 L 336.479 274.043 341.366 268.472 C 344.410 265.002, 348.561 261.700, 352.376 259.716 C 357.852 256.868, 359.400 256.530, 367 256.525 C 377.069 256.518, 382.419 258.552, 390.502 265.457 L 395.687 269.887 400.536 264.963 L 405.386 260.040 402.943 257.378 C 391.670 245.096, 372.862 238.922, 357.402 242.429 M 588.402 242.433 C 579.845 244.369, 573.513 247.847, 566.175 254.642 L 559.849 260.500 564.880 265.418 L 569.911 270.337 574.530 266.079 C 581.865 259.318, 588.923 256.500, 598.523 256.500 C 605.578 256.500, 607.353 256.898, 613.247 259.800 C 617.894 262.088, 621.090 264.540, 623.674 267.800 C 625.723 270.385, 627.739 272.907, 628.154 273.404 C 628.923 274.326, 640 266.595, 640 265.138 C 640 263.429, 628.794 252.076, 624.194 249.125 C 613.852 242.488, 599.785 239.858, 588.402 242.433 M 357.105 298.583 C 344.701 301.918, 334.368 310.718, 328.738 322.741 C 324.685 331.398, 323.721 344.564, 326.511 353.146 C 330.597 365.715, 338.528 375.012, 349.571 380.180 C 378.053 393.509, 410 372.516, 410 340.471 C 410 329.549, 406.136 319.704, 398.526 311.240 C 388.016 299.551, 371.861 294.614, 357.105 298.583 M 588.251 298.481 C 573.581 302.611, 562.228 313.501, 557.606 327.875 C 553.855 339.540, 556.367 355.707, 563.537 366.053 C 572.406 378.852, 589.561 386.403, 604.355 384.020 C 626.502 380.454, 642.448 360.103, 640.722 337.609 C 639.699 324.272, 633.680 313.340, 623.074 305.554 C 613.006 298.164, 599.280 295.376, 588.251 298.481 M 348.500 313.881 C 343.742 316.066, 341.610 318.296, 339.538 323.254 C 334.491 335.333, 342.842 348.429, 355.592 348.429 C 374.133 348.429, 379.513 322.102, 362.596 314.150 C 357.034 311.536, 353.744 311.473, 348.500 313.881 M 579.384 313.913 C 573.259 316.695, 569.705 321.933, 569.199 328.926 C 567.578 351.335, 597.350 356.414, 603.153 334.719 C 605.351 326.501, 600.844 317.651, 592.541 313.880 C 587.434 311.560, 584.550 311.567, 579.384 313.913 M 467.500 325.505 C 430.846 333.728, 406.029 361.793, 404.280 397 C 403.574 411.228, 405.583 421.495, 411.425 433.503 C 424.849 461.098, 452.657 478.039, 484.636 478.106 C 542.239 478.226, 581.027 424.051, 560.338 372.372 C 553.694 355.775, 536.996 338.861, 519.363 330.865 C 505.060 324.380, 482.779 322.077, 467.500 325.505 M 468 339.606 C 449.098 344.674, 431.681 358.515, 423.966 374.600 C 414.655 394.014, 416.451 417.468, 428.612 435.266 C 445.734 460.325, 478.317 470.572, 508.166 460.283 C 532.591 451.864, 550.173 429.526, 551.677 405 C 553.537 374.677, 533.142 347.837, 502.234 339.932 C 493.030 337.578, 476.164 337.418, 468 339.606 M 474.500 359.036 C 471.200 360.097, 466.048 361.424, 463.052 361.985 C 454.053 363.670, 450.868 367.800, 447.477 382.182 L 445.696 389.740 447.968 394.433 C 450.421 399.500, 457.680 406.112, 469.211 413.779 C 473.436 416.588, 476 418.978, 476 420.105 C 476 424.419, 459.610 430.786, 453.070 429.012 C 448.160 427.680, 443.692 423.384, 444.359 420.636 C 444.644 419.461, 445.181 415.755, 445.551 412.400 L 446.224 406.300 439.488 404.607 C 435.783 403.677, 432.635 403.047, 432.493 403.208 C 432.351 403.368, 431.492 408.636, 430.584 414.913 L 428.932 426.326 433.265 431.906 C 444 445.731, 461.274 447.460, 479.401 436.524 C 484.552 433.417, 485.506 433.142, 486.901 434.368 C 491.654 438.542, 506.742 444, 513.529 444 C 515.238 444, 519.068 443.278, 522.039 442.396 C 526.350 441.115, 528.709 439.498, 533.721 434.387 C 538.354 429.662, 539.998 427.264, 539.993 425.241 C 539.984 421.701, 537.331 403.997, 536.717 403.384 C 536.459 403.126, 533.235 403.672, 529.551 404.598 C 523.584 406.096, 522.911 406.510, 523.378 408.390 C 523.667 409.550, 524.204 413.462, 524.572 417.082 C 525.217 423.422, 525.141 423.744, 522.505 425.817 C 516.454 430.577, 509.028 430.380, 499.500 425.207 C 492.190 421.238, 492.638 419.525, 502.910 412.183 C 513.625 404.523, 521.618 396.688, 523.005 392.483 C 523.882 389.828, 523.683 387.593, 521.979 380.917 C 518.487 367.240, 515.649 363.640, 507.078 362.015 C 504.153 361.460, 498.842 360.105, 495.275 359.003 C 487.281 356.534, 482.259 356.542, 474.500 359.036 M 310 495.986 C 303.675 496.427, 295.575 497.307, 292 497.941 C 256.149 504.301, 228.920 529.197, 215.163 568.195 C 211.701 578.008, 207.115 600.327, 204.057 622.242 C 202.926 630.350, 202 637.438, 202 637.992 C 202 638.652, 215.421 639, 240.862 639 L 279.725 639 280.373 633.482 C 280.730 630.447, 281.894 625.668, 282.961 622.860 L 284.900 617.756 281.431 621.810 C 276.427 627.655, 267.227 632, 259.851 632 C 247.885 632, 238.058 625.926, 232.824 615.295 C 221.634 592.564, 240.178 567.425, 264.727 572.046 C 275.352 574.046, 285.054 582.977, 287.989 593.461 C 289.222 597.864, 288.979 607.862, 287.559 611.180 C 287.163 612.104, 290.390 609.362, 294.729 605.087 C 303.822 596.127, 311.593 591.814, 323 589.395 C 341.079 585.561, 359.305 590.857, 373.059 603.941 C 375.406 606.174, 377.365 608, 377.413 608.001 C 377.461 608.001, 377.339 605.675, 377.142 602.832 C 376.158 588.618, 386.805 575.036, 401.278 572.042 C 411.060 570.018, 420.998 573.202, 428.201 580.665 C 442.150 595.120, 437.830 619.904, 419.753 629.126 C 411.145 633.518, 398.363 632.450, 389.775 626.622 L 386.466 624.377 387.882 631.688 L 389.298 639 423.228 639 L 457.159 639 456.613 636.250 C 456.313 634.737, 455.352 628.100, 454.477 621.500 C 452.281 604.930, 447.364 580.267, 444.325 570.579 C 435.164 541.376, 413.972 516.023, 389.415 504.889 C 373.477 497.662, 339.922 493.901, 310 495.986 M 605.500 520.486 C 573 525.034, 548.223 541.447, 530.128 570.412 C 519.760 587.008, 514.524 603.053, 509.050 635.008 C 506.584 649.400, 499 705.903, 499 709.882 C 499 710.673, 505.651 711.001, 521.750 711.005 L 544.500 711.010 540.791 713.256 L 537.082 715.501 539.226 719.001 C 540.405 720.925, 541.488 722.663, 541.631 722.863 C 541.775 723.062, 546.686 720.475, 552.546 717.113 L 563.199 711 582.599 711 C 593.270 711, 602 710.749, 602 710.441 C 602 710.134, 600.695 708.222, 599.100 706.191 C 581.120 683.304, 585.477 649.577, 608.722 631.722 C 616.390 625.831, 621.616 623.272, 630.741 620.938 C 651.061 615.742, 671.650 621.094, 686.230 635.363 L 692.500 641.500 692.500 632.500 C 692.500 625.020, 692.895 622.740, 694.835 619 C 700.457 608.168, 711.555 601.002, 722.712 601.001 C 740.286 600.999, 754.123 614.441, 754.352 631.738 C 754.475 641.052, 751.979 647.768, 745.936 654.380 C 737.716 663.374, 726.526 666.748, 715.527 663.551 C 709.499 661.798, 706.067 660.015, 702.277 656.667 L 700.054 654.702 701.048 658.101 C 705.956 674.880, 702.897 691.698, 692.292 706.250 L 688.830 711 709.170 711 L 729.510 711 739.835 717 C 745.514 720.300, 750.313 723, 750.499 723 C 750.685 723, 751.805 721.433, 752.989 719.518 C 755.380 715.650, 755.053 714.435, 751.153 712.688 C 748.950 711.702, 751.362 711.453, 765.357 711.225 L 782.213 710.951 781.631 707.725 C 781.311 705.951, 779.475 691.900, 777.552 676.500 C 768.971 607.804, 762.694 586.217, 743.952 560.936 C 734.371 548.012, 717.966 534.404, 705.309 528.881 C 698.422 525.876, 688.868 523.203, 678.500 521.379 C 665.786 519.142, 619.174 518.572, 605.500 520.486 M 245.303 538.970 C 239.882 541.711, 229 551.639, 229 553.844 C 229 554.219, 231.429 556.423, 234.397 558.742 L 239.794 562.957 243.354 558.613 C 251.634 548.508, 263.238 547.569, 272.648 556.243 L 277.115 560.361 282.308 555.114 L 287.500 549.868 283 545.825 C 275.516 539.101, 269.768 536.706, 260 536.242 C 252.056 535.864, 251.095 536.042, 245.303 538.970 M 393.500 538.909 C 390.200 540.509, 385.475 543.628, 383 545.841 L 378.500 549.864 383.692 555.112 L 388.885 560.361 393.277 556.313 C 395.692 554.086, 399.367 551.704, 401.442 551.019 C 408.580 548.663, 416.803 551.613, 422.508 558.575 L 426.104 562.964 431.302 558.873 C 434.161 556.623, 436.665 554.337, 436.866 553.793 C 437.067 553.249, 434.142 549.803, 430.366 546.135 C 422.454 538.451, 416.539 535.999, 405.912 536.001 C 400.876 536.001, 398.212 536.626, 393.500 538.909 M 553.500 564.663 C 551.300 565.585, 547.616 567.616, 545.313 569.175 C 540.743 572.269, 533.606 580.382, 534.156 581.859 C 534.345 582.367, 536.818 584.607, 539.652 586.837 L 544.803 590.891 547.582 586.882 C 550.983 581.973, 557.159 578.214, 563.177 577.389 C 568.754 576.625, 575.809 579.452, 581.038 584.545 L 584.576 587.992 589.864 582.638 L 595.151 577.284 589.734 572.656 C 581.860 565.929, 576.198 563.699, 566 563.310 C 559.711 563.069, 556.459 563.421, 553.500 564.663 M 714 563.935 C 709.039 565.450, 703.247 568.952, 698.420 573.356 L 693.500 577.846 698.423 582.883 L 703.346 587.920 707.113 584.517 C 714.311 578.014, 720.366 576.169, 728.281 578.067 C 732.485 579.076, 734.473 580.354, 738.725 584.779 C 744.594 590.887, 744.133 590.904, 751.879 584.301 L 755.259 581.421 750.976 576.460 C 742.939 567.153, 734.214 562.946, 723.239 563.086 C 719.533 563.133, 715.375 563.515, 714 563.935 M 463.002 582.750 C 463.002 583.163, 464.547 592.725, 466.433 604 C 468.320 615.275, 470.178 627.777, 470.564 631.782 L 471.265 639.063 482.293 638.782 L 493.321 638.500 496.988 620 C 500.509 602.240, 503.700 590.613, 506.662 584.750 L 508.051 582 485.526 582 C 473.137 582, 463.001 582.337, 463.002 582.750 M 247.270 584.460 C 237.145 588.933, 238.335 602.923, 249.115 606.153 C 252.296 607.106, 253.344 606.988, 256.175 605.358 C 258.004 604.305, 260.360 601.694, 261.412 599.556 C 263.147 596.027, 263.193 595.298, 261.912 591.674 C 259.545 584.980, 253.185 581.847, 247.270 584.460 M 394.095 587.574 C 389.665 591.301, 388.276 596.672, 390.520 601.400 C 394.778 610.375, 407.205 610.162, 410.979 601.051 C 412.852 596.528, 411.525 591.668, 407.434 588.076 C 402.949 584.138, 398.382 583.966, 394.095 587.574 M 555.500 602.269 C 542.704 607.538, 535.136 617.431, 534.228 630.075 C 533.046 646.543, 542.309 659.559, 558.089 663.601 C 568.918 666.376, 578.779 663.562, 587.195 655.295 C 593.604 649, 596.254 642.519, 596.316 632.991 C 596.396 620.537, 590.468 610.294, 579.831 604.505 C 575.459 602.125, 573.115 601.565, 566.512 601.325 C 561.759 601.153, 557.280 601.537, 555.500 602.269 M 325.355 602.976 C 310.423 606.159, 296.577 620.184, 294.481 634.250 L 293.773 639 301.365 639 L 308.957 639 307.791 636.440 C 305.817 632.109, 309.353 618.442, 313.292 615.173 C 315.312 613.496, 329.725 609.897, 334.559 609.863 C 338.346 609.835, 347.161 611.858, 353.059 614.108 C 356.321 615.353, 358.405 618.911, 360.415 626.668 C 361.585 631.186, 361.743 633.545, 361.006 635.484 C 360.453 636.939, 360 638.326, 360 638.565 C 360 638.804, 363.364 639, 367.475 639 L 374.950 639 374.383 635.750 C 371.040 616.576, 356.445 603.723, 336.658 602.526 C 332.721 602.288, 327.635 602.491, 325.355 602.976 M 552.270 614.483 C 544.248 617.970, 542.731 628.616, 549.387 634.716 C 559.583 644.060, 574.301 631.207, 567.040 619.299 C 564.997 615.948, 560.367 612.972, 557.300 613.039 C 556.310 613.061, 554.046 613.710, 552.270 614.483 M 710.898 617.287 C 704.287 621.735, 703.763 630.012, 709.700 636.209 C 717.029 643.859, 729 638.184, 729 627.061 C 729 617.185, 719.040 611.807, 710.898 617.287 M 632 634.875 C 615.567 640.155, 603.677 654.532, 602.316 670.766 C 601.743 677.610, 603.350 688, 604.983 688 C 605.414 688, 606.086 685.024, 606.475 681.387 L 607.183 674.774 610.842 675.378 C 612.854 675.710, 616.128 676.441, 618.119 677.002 L 621.738 678.022 620.867 682.680 C 619.369 690.699, 623.877 693.053, 632.894 688.963 L 637.287 686.969 631.394 682.881 C 619.169 674.400, 616.420 670.432, 617.440 662.743 C 618.771 652.707, 623.988 645, 629.451 645 C 630.715 645, 633.662 644.325, 636 643.500 C 641.387 641.599, 648.884 641.586, 655.412 643.464 C 658.210 644.269, 661.776 645.187, 663.335 645.504 C 669.133 646.683, 672.529 652.789, 673.681 664.108 C 674.228 669.481, 674.102 669.881, 670.665 673.686 C 668.692 675.870, 664.360 679.635, 661.039 682.054 C 657.717 684.473, 655 686.751, 655 687.117 C 655 688.061, 662.635 691, 665.086 691 C 666.211 691, 668.004 690.533, 669.070 689.962 C 670.755 689.061, 670.926 688.220, 670.375 683.536 L 669.742 678.147 673.675 677.087 C 675.839 676.505, 679.006 675.749, 680.713 675.407 L 683.818 674.786 684.525 681.393 C 684.915 685.027, 685.613 688, 686.078 688 C 687.776 688, 689.207 679.296, 688.792 671.500 C 688.452 665.132, 687.715 662.142, 685.177 656.845 C 681.772 649.739, 673.836 641.485, 667.118 638.063 C 656.908 632.863, 642.368 631.543, 632 634.875 M 639.547 701.727 C 633.759 704.729, 622.699 705.980, 619.078 704.042 C 615.082 701.903, 615.691 703.764, 620.012 706.894 C 629.059 713.447, 643.053 716.378, 654.219 714.059 C 660.875 712.676, 670.004 708.265, 675 704.016 L 678.500 701.039 674.500 703.093 C 668.868 705.984, 658.526 705.344, 651.283 701.656 C 648.414 700.195, 645.714 699.036, 645.283 699.079 C 644.852 699.123, 642.271 700.314, 639.547 701.727 M 295 767 L 295 776 409.500 776 L 524 776 524 767 L 524 758 409.500 758 L 295 758 295 767 M 428 814.500 L 428 824 522 824 L 616 824 616 814.500 L 616 805 522 805 L 428 805 428 814.500" stroke="none" fill="#54278E" fill-rule="evenodd"/><path d="M -0 468.001 L -0 936.002 499.250 935.751 L 998.500 935.500 998.751 467.750 L 999.002 0 499.501 0 L 0 0 -0 468.001 M 0.496 468.500 C 0.496 725.900, 0.610 831.349, 0.750 702.832 C 0.890 574.314, 0.890 363.714, 0.750 234.832 C 0.610 105.949, 0.496 211.100, 0.496 468.500 M 354.500 62 C 319.867 62.309, 297.867 62.882, 296.840 63.500 C 295.453 64.336, 60.954 359.482, 55.726 366.973 C 54.777 368.332, 54 370.850, 54 372.567 C 54 374.284, 73.550 460.211, 97.444 563.515 C 134.857 725.270, 141.208 751.662, 143.194 753.649 C 144.463 754.918, 224.201 793.574, 320.389 839.551 C 460.719 906.629, 495.793 923.024, 497.889 922.525 C 500.071 922.006, 559.553 893.336, 706.500 821.977 C 719.150 815.834, 742.550 804.491, 758.500 796.770 C 812.928 770.422, 844.498 755.024, 847 753.607 C 848.375 752.828, 850.027 751.135, 850.671 749.845 C 852.420 746.344, 936.013 374.095, 936.006 369.839 C 936.001 366.625, 934.203 363.936, 921.299 347.839 C 913.213 337.752, 859.174 270.325, 801.211 198 C 743.249 125.675, 694.454 65.215, 692.779 63.645 L 689.733 60.790 550.117 61.145 C 473.328 61.340, 385.300 61.725, 354.500 62 M 485.778 79.968 C 308.700 80.495, 307.038 80.518, 305.169 82.500 C 304.132 83.600, 251.594 149.750, 188.419 229.500 C 116.018 320.897, 73.603 375.239, 73.683 376.500 C 73.753 377.600, 78.343 398.075, 83.884 422 C 123.794 594.351, 148.773 702.405, 152.658 719.500 C 155.157 730.500, 157.719 740.044, 158.351 740.709 C 159.252 741.658, 236.526 778.917, 314.500 815.998 C 319.450 818.352, 330.700 823.735, 339.500 827.960 C 348.300 832.184, 387.251 850.821, 426.057 869.375 L 496.615 903.109 522.557 890.453 C 536.826 883.493, 551.200 876.522, 554.500 874.962 C 557.800 873.402, 622.150 842.199, 697.500 805.621 L 834.500 739.115 838.222 722.808 C 840.270 713.838, 844.423 695.475, 847.452 682 C 850.480 668.525, 856.303 642.650, 860.391 624.500 C 864.478 606.350, 875.300 558.200, 884.440 517.500 C 893.579 476.800, 901.698 440.800, 902.482 437.500 C 909.304 408.793, 916.897 372.642, 916.306 371.682 C 915.905 371.032, 890.117 338.775, 858.998 300 C 827.879 261.225, 775.945 196.425, 743.589 156 C 711.234 115.575, 683.865 81.713, 682.770 80.750 C 681.170 79.344, 679.180 79.043, 672.639 79.218 C 668.163 79.337, 584.075 79.675, 485.778 79.968 M 456 156.075 C 412.446 157.864, 384.791 164.933, 359.188 180.821 C 330.670 198.517, 307.979 223.979, 291.745 256.500 C 275.516 289.008, 268.996 318.832, 257.025 415.300 C 251.922 456.423, 248.931 475.153, 244.522 493.606 L 242.108 503.713 232.672 513.149 C 223.383 522.438, 213.745 535.674, 207.976 547.066 C 200.604 561.622, 194.378 586.047, 190.022 617.500 C 188.880 625.750, 187.712 633.962, 187.427 635.750 L 186.909 639 175.455 639 L 164 639 164 648.497 L 164 657.994 327.281 658.247 L 490.562 658.500 487.332 684 C 485.555 698.025, 484.079 709.612, 484.051 709.750 C 484.023 709.888, 450.025 710, 408.500 710 L 333 710 333 719.500 L 333 729 580 729 L 827 729 827 719.500 L 827 710 811.707 710 L 796.415 710 794.151 691.250 C 787.991 640.238, 782.479 608.903, 776.693 592.002 L 773.268 582 807.134 582 L 841 582 841 572.500 L 841 563 802.083 563 L 763.166 563 757.439 554.750 C 754.290 550.212, 747.717 542.563, 742.834 537.750 L 733.956 529 766.478 529 L 799 529 799 520 L 799 511 757.035 511 C 718.089 511, 715.004 510.874, 714.143 509.250 C 713.633 508.288, 712.008 502.550, 710.531 496.500 C 709.055 490.450, 707.626 484.712, 707.356 483.750 C 706.897 482.114, 708.634 482, 733.933 482 L 761 482 761 472.515 L 761 463.031 732.277 462.765 L 703.555 462.500 702.798 458.065 C 702.382 455.626, 699.771 435.376, 696.996 413.065 C 684.010 308.653, 676.281 277.579, 654.205 241.029 C 633.568 206.863, 601.799 179.702, 568.460 167.724 C 552.658 162.046, 524.849 157.434, 500.649 156.478 C 493.417 156.192, 484.350 155.823, 480.500 155.657 C 476.650 155.491, 465.625 155.679, 456 156.075 M 445.500 171.043 C 420.604 172.739, 400.435 177.063, 384.197 184.184 C 349.172 199.545, 322.651 226.096, 303.900 264.573 C 290.047 293, 282.510 327.769, 272.482 409.500 C 267.487 450.216, 264.828 468.685, 261.920 482.860 C 260.864 488.008, 260 492.332, 260 492.468 C 260 492.605, 263.712 491.237, 268.250 489.429 C 283.228 483.459, 300.299 481.039, 327.500 481.028 C 357.784 481.016, 380.276 484.571, 396.522 491.937 C 421.164 503.111, 444.738 529.621, 455.488 558.250 L 457.272 563 487.489 563 L 517.707 563 522.203 556.250 C 532.674 540.533, 549.569 525.747, 567.121 516.939 C 586.405 507.262, 601.798 504.573, 638 504.558 C 664.936 504.547, 679.246 505.828, 692.953 509.475 C 695.953 510.273, 698.555 510.778, 698.737 510.596 C 698.918 510.415, 698.159 506.944, 697.049 502.883 C 691.902 484.053, 688.396 462.542, 682.048 410.845 C 672.531 333.347, 665.748 299.782, 654.135 272.717 C 633.340 224.252, 595.483 189.102, 552.173 178.044 C 526.146 171.399, 482.414 168.529, 445.500 171.043 M 357.402 242.429 C 346.197 244.971, 336.219 251.623, 327.949 262.064 L 325.086 265.679 330.783 269.861 L 336.479 274.043 341.366 268.472 C 344.410 265.002, 348.561 261.700, 352.376 259.716 C 357.852 256.868, 359.400 256.530, 367 256.525 C 377.069 256.518, 382.419 258.552, 390.502 265.457 L 395.687 269.887 400.536 264.963 L 405.386 260.040 402.943 257.378 C 391.670 245.096, 372.862 238.922, 357.402 242.429 M 588.402 242.433 C 579.845 244.369, 573.513 247.847, 566.175 254.642 L 559.849 260.500 564.880 265.418 L 569.911 270.337 574.530 266.079 C 581.865 259.318, 588.923 256.500, 598.523 256.500 C 605.578 256.500, 607.353 256.898, 613.247 259.800 C 617.894 262.088, 621.090 264.540, 623.674 267.800 C 625.723 270.385, 627.739 272.907, 628.154 273.404 C 628.923 274.326, 640 266.595, 640 265.138 C 640 263.429, 628.794 252.076, 624.194 249.125 C 613.852 242.488, 599.785 239.858, 588.402 242.433 M 357.105 298.583 C 344.701 301.918, 334.368 310.718, 328.738 322.741 C 324.685 331.398, 323.721 344.564, 326.511 353.146 C 330.597 365.715, 338.528 375.012, 349.571 380.180 C 378.053 393.509, 410 372.516, 410 340.471 C 410 329.549, 406.136 319.704, 398.526 311.240 C 388.016 299.551, 371.861 294.614, 357.105 298.583 M 588.251 298.481 C 573.581 302.611, 562.228 313.501, 557.606 327.875 C 553.855 339.540, 556.367 355.707, 563.537 366.053 C 572.406 378.852, 589.561 386.403, 604.355 384.020 C 626.502 380.454, 642.448 360.103, 640.722 337.609 C 639.699 324.272, 633.680 313.340, 623.074 305.554 C 613.006 298.164, 599.280 295.376, 588.251 298.481 M 348.500 313.881 C 343.742 316.066, 341.610 318.296, 339.538 323.254 C 334.491 335.333, 342.842 348.429, 355.592 348.429 C 374.133 348.429, 379.513 322.102, 362.596 314.150 C 357.034 311.536, 353.744 311.473, 348.500 313.881 M 579.384 313.913 C 573.259 316.695, 569.705 321.933, 569.199 328.926 C 567.578 351.335, 597.350 356.414, 603.153 334.719 C 605.351 326.501, 600.844 317.651, 592.541 313.880 C 587.434 311.560, 584.550 311.567, 579.384 313.913 M 467.500 325.505 C 430.846 333.728, 406.029 361.793, 404.280 397 C 403.574 411.228, 405.583 421.495, 411.425 433.503 C 424.849 461.098, 452.657 478.039, 484.636 478.106 C 542.239 478.226, 581.027 424.051, 560.338 372.372 C 553.694 355.775, 536.996 338.861, 519.363 330.865 C 505.060 324.380, 482.779 322.077, 467.500 325.505 M 468 339.606 C 449.098 344.674, 431.681 358.515, 423.966 374.600 C 414.655 394.014, 416.451 417.468, 428.612 435.266 C 445.734 460.325, 478.317 470.572, 508.166 460.283 C 532.591 451.864, 550.173 429.526, 551.677 405 C 553.537 374.677, 533.142 347.837, 502.234 339.932 C 493.030 337.578, 476.164 337.418, 468 339.606 M 474.500 359.036 C 471.200 360.097, 466.048 361.424, 463.052 361.985 C 454.053 363.670, 450.868 367.800, 447.477 382.182 L 445.696 389.740 447.968 394.433 C 450.421 399.500, 457.680 406.112, 469.211 413.779 C 473.436 416.588, 476 418.978, 476 420.105 C 476 424.419, 459.610 430.786, 453.070 429.012 C 448.160 427.680, 443.692 423.384, 444.359 420.636 C 444.644 419.461, 445.181 415.755, 445.551 412.400 L 446.224 406.300 439.488 404.607 C 435.783 403.677, 432.635 403.047, 432.493 403.208 C 432.351 403.368, 431.492 408.636, 430.584 414.913 L 428.932 426.326 433.265 431.906 C 444 445.731, 461.274 447.460, 479.401 436.524 C 484.552 433.417, 485.506 433.142, 486.901 434.368 C 491.654 438.542, 506.742 444, 513.529 444 C 515.238 444, 519.068 443.278, 522.039 442.396 C 526.350 441.115, 528.709 439.498, 533.721 434.387 C 538.354 429.662, 539.998 427.264, 539.993 425.241 C 539.984 421.701, 537.331 403.997, 536.717 403.384 C 536.459 403.126, 533.235 403.672, 529.551 404.598 C 523.584 406.096, 522.911 406.510, 523.378 408.390 C 523.667 409.550, 524.204 413.462, 524.572 417.082 C 525.217 423.422, 525.141 423.744, 522.505 425.817 C 516.454 430.577, 509.028 430.380, 499.500 425.207 C 492.190 421.238, 492.638 419.525, 502.910 412.183 C 513.625 404.523, 521.618 396.688, 523.005 392.483 C 523.882 389.828, 523.683 387.593, 521.979 380.917 C 518.487 367.240, 515.649 363.640, 507.078 362.015 C 504.153 361.460, 498.842 360.105, 495.275 359.003 C 487.281 356.534, 482.259 356.542, 474.500 359.036 M 310 495.986 C 303.675 496.427, 295.575 497.307, 292 497.941 C 256.149 504.301, 228.920 529.197, 215.163 568.195 C 211.701 578.008, 207.115 600.327, 204.057 622.242 C 202.926 630.350, 202 637.438, 202 637.992 C 202 638.652, 215.421 639, 240.862 639 L 279.725 639 280.373 633.482 C 280.730 630.447, 281.894 625.668, 282.961 622.860 L 284.900 617.756 281.431 621.810 C 276.427 627.655, 267.227 632, 259.851 632 C 247.885 632, 238.058 625.926, 232.824 615.295 C 221.634 592.564, 240.178 567.425, 264.727 572.046 C 275.352 574.046, 285.054 582.977, 287.989 593.461 C 289.222 597.864, 288.979 607.862, 287.559 611.180 C 287.163 612.104, 290.390 609.362, 294.729 605.087 C 303.822 596.127, 311.593 591.814, 323 589.395 C 341.079 585.561, 359.305 590.857, 373.059 603.941 C 375.406 606.174, 377.365 608, 377.413 608.001 C 377.461 608.001, 377.339 605.675, 377.142 602.832 C 376.158 588.618, 386.805 575.036, 401.278 572.042 C 411.060 570.018, 420.998 573.202, 428.201 580.665 C 442.150 595.120, 437.830 619.904, 419.753 629.126 C 411.145 633.518, 398.363 632.450, 389.775 626.622 L 386.466 624.377 387.882 631.688 L 389.298 639 423.228 639 L 457.159 639 456.613 636.250 C 456.313 634.737, 455.352 628.100, 454.477 621.500 C 452.281 604.930, 447.364 580.267, 444.325 570.579 C 435.164 541.376, 413.972 516.023, 389.415 504.889 C 373.477 497.662, 339.922 493.901, 310 495.986 M 605.500 520.486 C 573 525.034, 548.223 541.447, 530.128 570.412 C 519.760 587.008, 514.524 603.053, 509.050 635.008 C 506.584 649.400, 499 705.903, 499 709.882 C 499 710.673, 505.651 711.001, 521.750 711.005 L 544.500 711.010 540.791 713.256 L 537.082 715.501 539.226 719.001 C 540.405 720.925, 541.488 722.663, 541.631 722.863 C 541.775 723.062, 546.686 720.475, 552.546 717.113 L 563.199 711 582.599 711 C 593.270 711, 602 710.749, 602 710.441 C 602 710.134, 600.695 708.222, 599.100 706.191 C 581.120 683.304, 585.477 649.577, 608.722 631.722 C 616.390 625.831, 621.616 623.272, 630.741 620.938 C 651.061 615.742, 671.650 621.094, 686.230 635.363 L 692.500 641.500 692.500 632.500 C 692.500 625.020, 692.895 622.740, 694.835 619 C 700.457 608.168, 711.555 601.002, 722.712 601.001 C 740.286 600.999, 754.123 614.441, 754.352 631.738 C 754.475 641.052, 751.979 647.768, 745.936 654.380 C 737.716 663.374, 726.526 666.748, 715.527 663.551 C 709.499 661.798, 706.067 660.015, 702.277 656.667 L 700.054 654.702 701.048 658.101 C 705.956 674.880, 702.897 691.698, 692.292 706.250 L 688.830 711 709.170 711 L 729.510 711 739.835 717 C 745.514 720.300, 750.313 723, 750.499 723 C 750.685 723, 751.805 721.433, 752.989 719.518 C 755.380 715.650, 755.053 714.435, 751.153 712.688 C 748.950 711.702, 751.362 711.453, 765.357 711.225 L 782.213 710.951 781.631 707.725 C 781.311 705.951, 779.475 691.900, 777.552 676.500 C 768.971 607.804, 762.694 586.217, 743.952 560.936 C 734.371 548.012, 717.966 534.404, 705.309 528.881 C 698.422 525.876, 688.868 523.203, 678.500 521.379 C 665.786 519.142, 619.174 518.572, 605.500 520.486 M 245.303 538.970 C 239.882 541.711, 229 551.639, 229 553.844 C 229 554.219, 231.429 556.423, 234.397 558.742 L 239.794 562.957 243.354 558.613 C 251.634 548.508, 263.238 547.569, 272.648 556.243 L 277.115 560.361 282.308 555.114 L 287.500 549.868 283 545.825 C 275.516 539.101, 269.768 536.706, 260 536.242 C 252.056 535.864, 251.095 536.042, 245.303 538.970 M 393.500 538.909 C 390.200 540.509, 385.475 543.628, 383 545.841 L 378.500 549.864 383.692 555.112 L 388.885 560.361 393.277 556.313 C 395.692 554.086, 399.367 551.704, 401.442 551.019 C 408.580 548.663, 416.803 551.613, 422.508 558.575 L 426.104 562.964 431.302 558.873 C 434.161 556.623, 436.665 554.337, 436.866 553.793 C 437.067 553.249, 434.142 549.803, 430.366 546.135 C 422.454 538.451, 416.539 535.999, 405.912 536.001 C 400.876 536.001, 398.212 536.626, 393.500 538.909 M 553.500 564.663 C 551.300 565.585, 547.616 567.616, 545.313 569.175 C 540.743 572.269, 533.606 580.382, 534.156 581.859 C 534.345 582.367, 536.818 584.607, 539.652 586.837 L 544.803 590.891 547.582 586.882 C 550.983 581.973, 557.159 578.214, 563.177 577.389 C 568.754 576.625, 575.809 579.452, 581.038 584.545 L 584.576 587.992 589.864 582.638 L 595.151 577.284 589.734 572.656 C 581.860 565.929, 576.198 563.699, 566 563.310 C 559.711 563.069, 556.459 563.421, 553.500 564.663 M 714 563.935 C 709.039 565.450, 703.247 568.952, 698.420 573.356 L 693.500 577.846 698.423 582.883 L 703.346 587.920 707.113 584.517 C 714.311 578.014, 720.366 576.169, 728.281 578.067 C 732.485 579.076, 734.473 580.354, 738.725 584.779 C 744.594 590.887, 744.133 590.904, 751.879 584.301 L 755.259 581.421 750.976 576.460 C 742.939 567.153, 734.214 562.946, 723.239 563.086 C 719.533 563.133, 715.375 563.515, 714 563.935 M 463.002 582.750 C 463.002 583.163, 464.547 592.725, 466.433 604 C 468.320 615.275, 470.178 627.777, 470.564 631.782 L 471.265 639.063 482.293 638.782 L 493.321 638.500 496.988 620 C 500.509 602.240, 503.700 590.613, 506.662 584.750 L 508.051 582 485.526 582 C 473.137 582, 463.001 582.337, 463.002 582.750 M 247.270 584.460 C 237.145 588.933, 238.335 602.923, 249.115 606.153 C 252.296 607.106, 253.344 606.988, 256.175 605.358 C 258.004 604.305, 260.360 601.694, 261.412 599.556 C 263.147 596.027, 263.193 595.298, 261.912 591.674 C 259.545 584.980, 253.185 581.847, 247.270 584.460 M 394.095 587.574 C 389.665 591.301, 388.276 596.672, 390.520 601.400 C 394.778 610.375, 407.205 610.162, 410.979 601.051 C 412.852 596.528, 411.525 591.668, 407.434 588.076 C 402.949 584.138, 398.382 583.966, 394.095 587.574 M 555.500 602.269 C 542.704 607.538, 535.136 617.431, 534.228 630.075 C 533.046 646.543, 542.309 659.559, 558.089 663.601 C 568.918 666.376, 578.779 663.562, 587.195 655.295 C 593.604 649, 596.254 642.519, 596.316 632.991 C 596.396 620.537, 590.468 610.294, 579.831 604.505 C 575.459 602.125, 573.115 601.565, 566.512 601.325 C 561.759 601.153, 557.280 601.537, 555.500 602.269 M 325.355 602.976 C 310.423 606.159, 296.577 620.184, 294.481 634.250 L 293.773 639 301.365 639 L 308.957 639 307.791 636.440 C 305.817 632.109, 309.353 618.442, 313.292 615.173 C 315.312 613.496, 329.725 609.897, 334.559 609.863 C 338.346 609.835, 347.161 611.858, 353.059 614.108 C 356.321 615.353, 358.405 618.911, 360.415 626.668 C 361.585 631.186, 361.743 633.545, 361.006 635.484 C 360.453 636.939, 360 638.326, 360 638.565 C 360 638.804, 363.364 639, 367.475 639 L 374.950 639 374.383 635.750 C 371.040 616.576, 356.445 603.723, 336.658 602.526 C 332.721 602.288, 327.635 602.491, 325.355 602.976 M 552.270 614.483 C 544.248 617.970, 542.731 628.616, 549.387 634.716 C 559.583 644.060, 574.301 631.207, 567.040 619.299 C 564.997 615.948, 560.367 612.972, 557.300 613.039 C 556.310 613.061, 554.046 613.710, 552.270 614.483 M 710.898 617.287 C 704.287 621.735, 703.763 630.012, 709.700 636.209 C 717.029 643.859, 729 638.184, 729 627.061 C 729 617.185, 719.040 611.807, 710.898 617.287 M 632 634.875 C 615.567 640.155, 603.677 654.532, 602.316 670.766 C 601.743 677.610, 603.350 688, 604.983 688 C 605.414 688, 606.086 685.024, 606.475 681.387 L 607.183 674.774 610.842 675.378 C 612.854 675.710, 616.128 676.441, 618.119 677.002 L 621.738 678.022 620.867 682.680 C 619.369 690.699, 623.877 693.053, 632.894 688.963 L 637.287 686.969 631.394 682.881 C 619.169 674.400, 616.420 670.432, 617.440 662.743 C 618.771 652.707, 623.988 645, 629.451 645 C 630.715 645, 633.662 644.325, 636 643.500 C 641.387 641.599, 648.884 641.586, 655.412 643.464 C 658.210 644.269, 661.776 645.187, 663.335 645.504 C 669.133 646.683, 672.529 652.789, 673.681 664.108 C 674.228 669.481, 674.102 669.881, 670.665 673.686 C 668.692 675.870, 664.360 679.635, 661.039 682.054 C 657.717 684.473, 655 686.751, 655 687.117 C 655 688.061, 662.635 691, 665.086 691 C 666.211 691, 668.004 690.533, 669.070 689.962 C 670.755 689.061, 670.926 688.220, 670.375 683.536 L 669.742 678.147 673.675 677.087 C 675.839 676.505, 679.006 675.749, 680.713 675.407 L 683.818 674.786 684.525 681.393 C 684.915 685.027, 685.613 688, 686.078 688 C 687.776 688, 689.207 679.296, 688.792 671.500 C 688.452 665.132, 687.715 662.142, 685.177 656.845 C 681.772 649.739, 673.836 641.485, 667.118 638.063 C 656.908 632.863, 642.368 631.543, 632 634.875 M 639.547 701.727 C 633.759 704.729, 622.699 705.980, 619.078 704.042 C 615.082 701.903, 615.691 703.764, 620.012 706.894 C 629.059 713.447, 643.053 716.378, 654.219 714.059 C 660.875 712.676, 670.004 708.265, 675 704.016 L 678.500 701.039 674.500 703.093 C 668.868 705.984, 658.526 705.344, 651.283 701.656 C 648.414 700.195, 645.714 699.036, 645.283 699.079 C 644.852 699.123, 642.271 700.314, 639.547 701.727 M 295 767 L 295 776 409.500 776 L 524 776 524 767 L 524 758 409.500 758 L 295 758 295 767 M 428 814.500 L 428 824 522 824 L 616 824 616 814.500 L 616 805 522 805 L 428 805 428 814.500" stroke="none" fill="#f2f2f2" fill-rule="evenodd"/></svg>